{
  "accessors": [
    {
      "bufferView": 2,
      "componentType": 5126,
      "count": 32996,
      "max": [
        0.041519999504089355,
        0.03866000100970268,
        0.2409300059080124
      ],
      "min": [
        -0.05889999866485596,
        -0.06814999878406525,
        -0.00011999999696854502
      ],
      "type": "VEC3"
    },
    {
      "bufferView": 2,
      "byteOffset": 395952,
      "componentType": 5126,
      "count": 32996,
      "max": [
        0.9999935626983643,
        0.999998152256012,
        1.0
      ],
      "min": [
        -1.0,
        -1.0,
        -0.9995976090431213
      ],
      "type": "VEC3"
    },
    {
      "bufferView": 1,
      "componentType": 5126,
      "count": 32996,
      "max": [
        0.9967259764671326,
        0.9979199767112732
      ],
      "min": [
        0.002139999996870756,
        0.5636550188064575
      ],
      "type": "VEC2"
    },
    {
      "bufferView": 0,
      "componentType": 5125,
      "count": 183273,
      "type": "SCALAR"
    }
  ],
  "asset": {
    "extras": {
      "author": "carlos.agredano (https://sketchfab.com/carlos.agredano)",
      "license": "CC-BY-NC-SA-4.0 (http://creativecommons.org/licenses/by-nc-sa/4.0/)",
      "source": "https://sketchfab.com/3d-models/cafe-823bd8454cff4adabf5454dd51862143",
      "title": "Cafe"
    },
    "generator": "Sketchfab-14.91.0",
    "version": "2.0"
  },
  "bufferViews": [
    {
      "buffer": 0,
      "byteLength": 733092,
      "name": "floatBufferViews",
      "target": 34963
    },
    {
      "buffer": 0,
      "byteLength": 263968,
      "byteOffset": 733092,
      "byteStride": 8,
      "name": "floatBufferViews",
      "target": 34962
    },
    {
      "buffer": 0,
      "byteLength": 791904,
      "byteOffset": 997060,
      "byteStride": 12,
      "name": "floatBufferViews",
      "target": 34962
    }
  ],
  "buffers": [
    {
      "byteLength": 1788964,
      "uri": "scene.bin"
    }
  ],
  "extensionsUsed": [
    "KHR_materials_unlit"
  ],
  "images": [
    {
      "uri": "textures/main_baseColor.jpeg"
    }
  ],
  "materials": [
    {
      "doubleSided": true,
      "extensions": {
        "KHR_materials_unlit": {}
      },
      "name": "main",
      "pbrMetallicRoughness": {
        "baseColorTexture": {
          "index": 0
        },
        "metallicFactor": 0.0
      }
    }
  ],
  "meshes": [
    {
      "name": "Object_0",
      "primitives": [
        {
          "attributes": {
            "NORMAL": 1,
            "POSITION": 0,
            "TEXCOORD_0": 2
          },
          "indices": 3,
          "material": 0,
          "mode": 4
        }
      ]
    }
  ],
  "nodes": [
    {
      "children": [
        1
      ],
      "matrix": [
        1.0,
        0.0,
        0.0,
        0.0,
        0.0,
        2.220446049250313e-16,
        -1.0,
        0.0,
        0.0,
        1.0,
        2.220446049250313e-16,
        0.0,
        0.0,
        0.0,
        0.0,
        1.0
      ],
      "name": "Sketchfab_model"
    },
    {
      "children": [
        2
      ],
      "name": "Scaniverse.obj.cleaner.materialmerger.gles"
    },
    {
      "mesh": 0,
      "name": "Object_2"
    }
  ],
  "samplers": [
    {
      "magFilter": 9729,
      "minFilter": 9987,
      "wrapS": 10497,
      "wrapT": 10497
    }
  ],
  "scene": 0,
  "scenes": [
    {
      "name": "Sketchfab_Scene",
      "nodes": [
        0
      ]
    }
  ],
  "textures": [
    {
      "sampler": 0,
      "source": 0
    }
  ]
}
